<svg id="Glyph" viewBox="0 0 64 64" xmlns="http://www.w3.org/2000/svg"><g ><path d="m50.1 41.1a4.02117 4.02117 0 0 0 -2.88 1.19 4.08007 4.08007 0 0 0 2.88 6.97h9.54v-8.16zm1.31 6.21a2.135 2.135 0 1 1 2.14-2.13 2.13818 2.13818 0 0 1 -2.14 2.13z"></path><path d="m30.8 26.44a11.22 11.22 0 1 0 -11.21-11.22 11.235 11.235 0 0 0 11.21 11.22zm.1-10.4h-.19a3.31109 3.31109 0 0 1 -.9-6.5v-.75a1 1 0 0 1 2 0v.62h1.41a1 1 0 0 1 0 2h-2.51a1.315 1.315 0 1 0 0 2.63h.19a3.32458 3.32458 0 0 1 3.32 3.32v.35a3.29956 3.29956 0 0 1 -2.41 3.18v.76a1 1 0 0 1 -2 0v-.63h-1.42a1 1 0 0 1 0-2h2.51a1.31659 1.31659 0 0 0 1.32-1.31v-.35a1.31873 1.31873 0 0 0 -1.32-1.32z"></path><path d="m50.1 51.26a6.08115 6.08115 0 0 1 -4.3-10.38 6.01 6.01 0 0 1 4.3-1.78h7.78v-7.74a.99654.99654 0 0 0 -1-1h-4.46691v-7.55043a.99943.99943 0 0 0 -1-1h-8.51661a1 1 0 0 0 0 2h7.51661v6.55043h-40.77309a3.28124 3.28124 0 0 1 -3.2788-3.26777l.00207-.01019a3.27085 3.27085 0 0 1 3.27344-3.27246h9.06543a1 1 0 0 0 0-2h-9.06542a5.26567 5.26567 0 0 0 -5.27 5.23731c-.00043.01165-.00671.02136-.00671.03308v26.83003a6.09444 6.09444 0 0 0 6.08999 6.09h43.37a4.06081 4.06081 0 0 0 4.06-4.05v-4.69zm-40.76 2.55v-7.33a1 1 0 0 1 2 0v7.33l8.91.01a1 1 0 0 1 0 2h-8.89a2.01867 2.01867 0 0 1 -2.02-2.01z"></path></g></svg>