<svg width="32" height="32" viewBox="0 0 32 32" fill="none" xmlns="http://www.w3.org/2000/svg">
<rect width="32" height="32" rx="6" fill="white"/>
<g clip-path="url(#clip0_8924_914)">
<path d="M4.00833 9.11602C3.99833 9.89677 4.00833 10.6793 4.00833 11.4601C4.00879 11.5516 4.03388 11.6411 4.08057 11.7177C4.12726 11.7943 4.19356 11.8547 4.27147 11.8916C6.55655 13.1141 8.84496 14.3324 11.1367 15.5465C8.86495 16.7463 6.60153 17.9622 4.3331 19.1673C4.24555 19.1974 4.16775 19.2536 4.10877 19.3294C4.04979 19.4051 4.01207 19.4974 4 19.5953C4 20.3779 4 21.1622 4 21.9448C4.07359 22.7211 4.3857 23.4489 4.88699 24.0132C5.38829 24.5774 6.05018 24.946 6.76808 25.0606C7.05454 25.0893 7.34101 25.0839 7.62748 25.0839H20.3486C20.6559 25.0984 20.9637 25.0713 21.2647 25.0033C21.7143 24.8859 22.1362 24.669 22.5035 24.3666C22.8708 24.0641 23.1755 23.6827 23.3982 23.2466C23.5431 22.9308 23.6602 22.601 23.748 22.2617C25.0537 22.9923 26.3878 23.6728 27.7035 24.3837C27.7311 24.4057 27.7639 24.4189 27.7981 24.422C27.8323 24.4251 27.8666 24.4178 27.8973 24.4011C27.9279 24.3844 27.9535 24.3588 27.9714 24.3273C27.9892 24.2957 27.9986 24.2595 27.9983 24.2226C27.9983 23.4132 27.9983 22.6109 27.9983 21.7943C27.9927 21.7143 27.9654 21.6377 27.9199 21.5741C27.8743 21.5104 27.8124 21.4625 27.7418 21.4362L16.6962 15.5465C20.3858 13.5779 24.0761 11.6081 27.7668 9.63712C27.8322 9.60672 27.8881 9.55685 27.9279 9.49338C27.9678 9.42992 27.9899 9.35552 27.9917 9.27898C27.9917 8.46957 27.9917 7.66732 27.9917 6.85433C27.988 6.824 27.9777 6.79504 27.9615 6.76988C27.9453 6.74473 27.9238 6.7241 27.8987 6.70972C27.8736 6.69535 27.8456 6.68764 27.8172 6.68726C27.7887 6.68687 27.7606 6.69381 27.7352 6.7075L23.7246 8.84562C23.6314 8.37709 23.4543 7.93251 23.2033 7.5366C22.9247 7.10199 22.5598 6.73935 22.135 6.47488C21.7101 6.2104 21.236 6.0507 20.7467 6.00732H7.10451C6.32922 6.04604 5.59203 6.38004 5.02479 6.94957C4.45754 7.51911 4.09724 8.28704 4.00833 9.11602Z" fill="white"/>
<path d="M6.535 9.13211C6.60557 8.98104 6.71493 8.85488 6.85011 8.76856C6.9853 8.68223 7.14066 8.63936 7.29781 8.64503H20.4836C20.6852 8.64277 20.8807 8.71921 21.0339 8.86015C21.187 9.0011 21.2874 9.19698 21.3164 9.41146C21.3331 9.64962 21.3247 9.88779 21.3164 10.1277C18.8514 11.4409 16.3865 12.7541 13.9215 14.0673C11.4233 12.7494 8.94 11.4153 6.45006 10.0884C6.46172 9.7696 6.39843 9.42757 6.535 9.13211Z" fill="white"/>
<path d="M6.45008 21.0153C8.9328 19.6842 11.4183 18.3584 13.9066 17.0381C16.3815 18.3346 18.8465 19.6669 21.3181 20.9777C21.3014 21.3215 21.3797 21.694 21.2115 22.0109C21.139 22.1474 21.0339 22.2607 20.9072 22.3391C20.7804 22.4175 20.6366 22.4581 20.4903 22.4568H7.29949C7.14463 22.4613 6.99166 22.4193 6.85778 22.3355C6.72391 22.2517 6.61444 22.1293 6.54168 21.9823C6.39512 21.685 6.46174 21.3376 6.45008 21.0153Z" fill="white"/>
<path d="M4.00507 9.2611C4.09294 8.39166 4.45307 7.5859 5.02088 6.98828C5.58869 6.39067 6.32704 6.0403 7.10354 6H20.7535C21.2428 6.04543 21.7171 6.21267 22.1421 6.48963C22.567 6.76659 22.932 7.14635 23.2106 7.60148C23.4617 8.01608 23.6388 8.48165 23.732 8.9723L27.7434 6.73323C27.7688 6.71889 27.797 6.71163 27.8254 6.71203C27.8539 6.71244 27.8818 6.72051 27.9069 6.73556C27.932 6.75062 27.9536 6.77222 27.9698 6.79856C27.9859 6.82491 27.9963 6.85523 27.9999 6.887C27.9999 7.73275 27.9999 8.57475 27.9999 9.42612C28.0015 9.51096 27.9802 9.59436 27.9389 9.66532C27.8976 9.73629 27.8381 9.7915 27.7684 9.82368C24.078 11.884 20.387 13.9468 16.6955 16.0121L27.7434 22.1649C27.814 22.1924 27.8759 22.2426 27.9214 22.3092C27.967 22.3759 27.9943 22.456 27.9999 22.5399C27.9999 23.3875 27.9999 24.2277 27.9999 25.0828C28.0002 25.1214 27.9908 25.1594 27.973 25.1924C27.9551 25.2254 27.9294 25.2522 27.8988 25.2697C27.8682 25.2873 27.8339 25.2948 27.7996 25.2916C27.7654 25.2884 27.7327 25.2745 27.7051 25.2515C26.3891 24.5014 25.0547 23.7945 23.7487 23.0294C23.6609 23.3847 23.5438 23.73 23.3988 24.0608C23.1776 24.5191 22.8738 24.9205 22.5069 25.2392C22.1401 25.5579 21.7182 25.7869 21.2682 25.9116C20.9672 25.9828 20.6594 26.0112 20.352 25.996H7.62995C7.34343 25.996 7.05523 25.996 6.77037 25.9717C6.05218 25.8506 5.39034 25.4635 4.88951 24.8715C4.38868 24.2795 4.07746 23.5165 4.00507 22.7031C4.00507 21.8836 4.00507 21.0622 4.00507 20.2427C4.01714 20.1401 4.05488 20.0435 4.11387 19.9642C4.17286 19.8848 4.25067 19.826 4.33824 19.7945C6.60712 18.5324 8.87101 17.2591 11.1432 16.0027C8.85435 14.72 6.56381 13.4411 4.2716 12.1659C4.19368 12.1272 4.12736 12.0639 4.08066 11.9837C4.03396 11.9035 4.00886 11.8098 4.0084 11.714C4.00507 10.8982 3.99341 10.0787 4.00507 9.2611ZM6.53382 9.27797C6.39722 9.58739 6.46053 9.94557 6.44887 10.2794C8.94764 11.6689 11.4281 13.066 13.9219 14.4462C16.3862 13.071 18.8516 11.6958 21.3182 10.3206C21.3182 10.0712 21.3282 9.8218 21.3182 9.57052C21.2892 9.34591 21.1888 9.14078 21.0356 8.99318C20.8824 8.84558 20.6869 8.76554 20.4853 8.7679H7.29511C7.13794 8.76197 6.98255 8.80686 6.84733 8.89726C6.71212 8.98766 6.60274 9.11977 6.53216 9.27797H6.53382ZM6.44887 21.7223C6.46053 22.0598 6.39556 22.4236 6.54049 22.7368C6.61326 22.8908 6.72275 23.0189 6.85665 23.1067C6.99055 23.1945 7.14355 23.2385 7.29844 23.2338H20.4969C20.6432 23.2351 20.7871 23.1925 20.9139 23.1105C21.0407 23.0284 21.1457 22.9098 21.2183 22.7668C21.3848 22.4386 21.3082 22.0448 21.3249 21.6848C18.8544 20.3121 16.3873 18.9169 13.9119 17.5592C11.4164 18.9469 8.9282 20.3346 6.4472 21.7223H6.44887Z" fill="black"/>
</g>
<defs>
<clipPath id="clip0_8924_914">
<rect width="24" height="20" fill="white" transform="translate(4 6)"/>
</clipPath>
</defs>
</svg>
