<?xml version="1.0" encoding="UTF-8"?>
<svg width="120px" height="120px" viewBox="0 0 120 120" version="1.1" xmlns="http://www.w3.org/2000/svg" xmlns:xlink="http://www.w3.org/1999/xlink">
    <defs>
        <linearGradient x1="3.744125%" y1="67.98075%" x2="94.4275%" y2="22.8739167%" id="linearGradient-1">
            <stop stop-color="#FF9532" offset="0%"></stop>
            <stop stop-color="#FF8A1C" offset="17%"></stop>
            <stop stop-color="#FF5B21" offset="51%"></stop>
            <stop stop-color="#FF5A24" offset="79%"></stop>
        </linearGradient>
    </defs>
    <g id="Page-1" stroke="none" stroke-width="1" fill="none" fill-rule="evenodd">
        <g id="Fav1-(1)" transform="translate(15.000000, 0.000000)" fill="url(#linearGradient-1)" fill-rule="nonzero">
            <path d="M27.5385,0.87716 L1.0192,27.2218 C0.7394,27.4998 0.5174,27.8298 0.366,28.193 C0.2146,28.5562 0.1366,28.9454 0.1366,29.3385 C0.1366,29.7317 0.2146,30.1209 0.366,30.4841 C0.5174,30.8473 0.7394,31.1773 1.0192,31.4553 L29.6735,59.9209 L0.8847,88.5409 C0.6043,88.819 0.3818,89.1492 0.23,89.5128 C0.0782,89.8764 0,90.2661 0,90.6597 C0,91.0534 0.0782,91.4431 0.23,91.8067 C0.3818,92.1703 0.6043,92.5005 0.8847,92.7786 L27.404,119.123 C27.6838,119.401 28.016,119.622 28.3816,119.772 C28.7472,119.923 29.1391,120 29.5348,120 C29.9305,120 30.3224,119.923 30.688,119.772 C31.0536,119.622 31.3857,119.401 31.6656,119.123 L89.117,62.0501 C89.682,61.488 90,60.7259 90,59.9313 C90,59.1367 89.682,58.3746 89.117,57.8125 L31.8043,0.87716 C31.2385,0.315501 30.4713,0 29.6714,0 C28.8715,0 28.1043,0.315501 27.5385,0.87716 Z" id="Path"></path>
        </g>
    </g>
</svg>
