<svg width="104" height="266" viewBox="0 0 104 266" fill="none" xmlns="http://www.w3.org/2000/svg">
<path d="M10.7447 168.267L19.341 187.924M10.7447 168.267H89.0663M10.7447 168.267C1.38474 168.11 -3.00934 152.978 10.7447 152.978M89.0663 168.267C98.4697 168.11 102 155.74 92.8869 152.978M89.0663 168.267L80.8794 187.924M92.8869 152.978C71.237 152.978 24.4987 152.978 10.7447 152.978M92.8869 152.978C103.354 137.021 111.012 109.277 79.3972 100.175M43.2195 97.5553C58.8235 96.5588 70.6229 97.6489 79.3972 100.175M64.3916 227.512L50.8607 260L36.6531 227.512M64.3916 227.512H36.6531M64.3916 227.512L72.6925 207.581M36.6531 227.512L27.9373 207.581M27.9373 207.581H72.6925M27.9373 207.581L19.341 187.924M72.6925 207.581L80.8794 187.924M80.8794 187.924H19.341M10.7447 152.978C5.51062 141.632 3.68264 125.026 22.2066 122.569M62.3225 130.045C43.5478 123.302 30.7252 121.44 22.2066 122.569M22.2066 122.569C12.28 105.95 1.2721 71.9468 36.6531 68.889M36.6531 68.889C42.0258 67.6149 55.8277 65.8312 68.0534 68.889M36.6531 68.889C23.7417 61.2446 6.21492 37.929 39.3991 5.82223C41.2092 14.4239 44.7389 21.3387 49.1252 26.8445M49.1252 26.8445C50.9773 19.2 59.2661 5.82223 77.6048 13.4667M49.1252 26.8445C57.4979 37.3541 68.9917 42.73 77.6048 44.9046M77.6048 13.4667C95.9435 21.1111 89.0663 40.2223 77.6048 44.9046M77.6048 13.4667C78.2414 10.2815 81.425 3.52889 89.0663 2M77.6048 44.9046C111.65 50.9956 92.9853 84.2895 79.3972 100.175" stroke="url(#paint0_linear_211_6)" stroke-width="4"/>
<defs>
<linearGradient id="paint0_linear_211_6" x1="52" y1="2" x2="52" y2="260" gradientUnits="userSpaceOnUse">
<stop stop-color="#EA3C70"/>
<stop offset="0.505" stop-color="#DFA589"/>
<stop offset="1" stop-color="#0084C0"/>
</linearGradient>
</defs>
</svg>
