<svg width="57" height="80" viewBox="0 0 57 80" fill="none" xmlns="http://www.w3.org/2000/svg">
<path d="M56.1723 76.9745V14.062L43.7586 0.0318867C32.7837 0.0106289 10.1514 7.79877e-06 7.4203 0C4.7965 -7.49232e-06 4.37331 1.65811 4.37331 3.76263C4.38271 27.1675 4.39588 74.5702 4.37331 76.9426C4.35073 79.315 5.81213 79.9718 7.02532 79.9718C21.6678 79.9931 51.4776 80.0228 53.5767 79.9718C55.6757 79.9208 56.1817 77.9523 56.1723 76.9745Z" fill="#E3E9E1"/>
<path d="M43.7588 14.0624V0.0322266L56.1725 14.0624H43.7588Z" fill="#EBF3EC"/>
<path d="M0 44H51.2542L51.2285 66.2488H3.99016H0V44Z" fill="#C8BF48"/>
<path d="M4.37298 70.6235L0 66.2412H4.37298V70.6235Z" fill="#8B8531"/>
<path d="M56.1997 22.5756L45.0273 14.0938H56.1997V22.5756Z" fill="#D6DBD5"/>
<path d="M16.587 50.1H24.432V51.675C23.602 52.505 22.942 53.36 22.452 54.24C21.962 55.12 21.607 56.035 21.387 56.985C21.177 57.935 21.072 58.94 21.072 60H19.017C19.017 58.9 19.152 57.845 19.422 56.835C19.702 55.815 20.127 54.845 20.697 53.925C21.277 52.995 22.012 52.105 22.902 51.255L23.322 51.795H16.587V50.1ZM27.2943 59.07L26.9193 58.35H33.8493V60H25.6143V58.44L32.0043 51.03L32.3643 51.75H25.7343V50.1H33.6693V51.66L27.2943 59.07Z" fill="white"/>
</svg>
