<svg width="57" height="80" viewBox="0 0 57 80" fill="none" xmlns="http://www.w3.org/2000/svg">
<path d="M56.1723 76.9745V14.062L43.7586 0.0318867C32.7837 0.0106289 10.1514 7.79877e-06 7.4203 0C4.7965 -7.49232e-06 4.37331 1.65811 4.37331 3.76263C4.38271 27.1675 4.39588 74.5702 4.37331 76.9426C4.35073 79.315 5.81213 79.9718 7.02532 79.9718C21.6678 79.9931 51.4776 80.0228 53.5767 79.9718C55.6757 79.9208 56.1817 77.9523 56.1723 76.9745Z" fill="#E3E9E1"/>
<path d="M43.7588 14.0624V0.0322266L56.1725 14.0624H43.7588Z" fill="#EBF3EC"/>
<path d="M0 44H51.2542L51.2285 66.2488H3.99016H0V44Z" fill="#2D4BB4"/>
<path d="M4.37298 70.6235L0 66.2412H4.37298V70.6235Z" fill="#1E327A"/>
<path d="M56.1997 22.5756L45.0273 14.0938H56.1997V22.5756Z" fill="#D6DBD5"/>
<path d="M9.51613 50.1C11.0661 50.1 12.2661 50.53 13.1161 51.39C13.9661 52.24 14.3911 53.46 14.3911 55.05C14.3911 56.63 13.9661 57.85 13.1161 58.71C12.2661 59.57 11.0661 60 9.51613 60H5.69113V50.1H9.51613ZM9.41113 58.35C10.3511 58.35 11.0561 58.07 11.5261 57.51C12.0061 56.94 12.2461 56.12 12.2461 55.05C12.2461 53.98 12.0061 53.165 11.5261 52.605C11.0561 52.035 10.3511 51.75 9.41113 51.75H7.76113V58.35H9.41113ZM20.7774 49.95C21.7574 49.95 22.6024 50.155 23.3124 50.565C24.0224 50.975 24.5674 51.56 24.9474 52.32C25.3374 53.08 25.5324 53.99 25.5324 55.05C25.5324 56.11 25.3374 57.02 24.9474 57.78C24.5674 58.54 24.0224 59.125 23.3124 59.535C22.6024 59.945 21.7574 60.15 20.7774 60.15C19.7974 60.15 18.9474 59.945 18.2274 59.535C17.5174 59.125 16.9674 58.54 16.5774 57.78C16.1974 57.02 16.0074 56.11 16.0074 55.05C16.0074 53.99 16.1974 53.08 16.5774 52.32C16.9674 51.56 17.5174 50.975 18.2274 50.565C18.9474 50.155 19.7974 49.95 20.7774 49.95ZM20.7774 51.645C20.2174 51.645 19.7424 51.775 19.3524 52.035C18.9624 52.295 18.6624 52.68 18.4524 53.19C18.2524 53.69 18.1524 54.31 18.1524 55.05C18.1524 55.78 18.2524 56.4 18.4524 56.91C18.6624 57.42 18.9624 57.805 19.3524 58.065C19.7424 58.325 20.2174 58.455 20.7774 58.455C21.3274 58.455 21.7974 58.325 22.1874 58.065C22.5774 57.805 22.8724 57.42 23.0724 56.91C23.2824 56.4 23.3874 55.78 23.3874 55.05C23.3874 54.31 23.2824 53.69 23.0724 53.19C22.8724 52.68 22.5774 52.295 22.1874 52.035C21.7974 51.775 21.3274 51.645 20.7774 51.645ZM36.1255 57.27C35.9355 57.91 35.6355 58.445 35.2255 58.875C34.8155 59.305 34.3305 59.625 33.7705 59.835C33.2105 60.045 32.5955 60.15 31.9255 60.15C30.9455 60.15 30.0955 59.945 29.3755 59.535C28.6655 59.125 28.1155 58.54 27.7255 57.78C27.3455 57.02 27.1555 56.11 27.1555 55.05C27.1555 53.99 27.3455 53.08 27.7255 52.32C28.1155 51.56 28.6655 50.975 29.3755 50.565C30.0955 50.155 30.9355 49.95 31.8955 49.95C32.5755 49.95 33.1905 50.045 33.7405 50.235C34.2905 50.415 34.7555 50.695 35.1355 51.075C35.5255 51.455 35.8105 51.935 35.9905 52.515L34.1155 53.31C33.9455 52.71 33.6855 52.285 33.3355 52.035C32.9855 51.775 32.5355 51.645 31.9855 51.645C31.4455 51.645 30.9705 51.775 30.5605 52.035C30.1605 52.295 29.8505 52.68 29.6305 53.19C29.4105 53.69 29.3005 54.31 29.3005 55.05C29.3005 55.78 29.4005 56.4 29.6005 56.91C29.8105 57.42 30.1155 57.805 30.5155 58.065C30.9155 58.325 31.4055 58.455 31.9855 58.455C32.5255 58.455 32.9905 58.31 33.3805 58.02C33.7805 57.73 34.0605 57.29 34.2205 56.7L36.1255 57.27ZM45.8726 60H43.4126L41.2526 56.49L39.1226 60H36.7526L40.1576 55.005L36.9926 50.1H39.4226L41.4176 53.43L43.4426 50.1H45.6926L42.5126 54.93L45.8726 60Z" fill="white"/>
</svg>
