<svg width="57" height="80" viewBox="0 0 57 80" fill="none" xmlns="http://www.w3.org/2000/svg">
<path d="M56.1723 76.9745V14.062L43.7586 0.0318867C32.7837 0.0106289 10.1514 7.79877e-06 7.4203 0C4.7965 -7.49232e-06 4.37331 1.65811 4.37331 3.76263C4.38271 27.1675 4.39588 74.5702 4.37331 76.9426C4.35073 79.315 5.81213 79.9718 7.02532 79.9718C21.6678 79.9931 51.4776 80.0228 53.5767 79.9718C55.6757 79.9208 56.1817 77.9523 56.1723 76.9745Z" fill="#E3E9E1"/>
<path d="M43.7588 14.0624V0.0322266L56.1725 14.0624H43.7588Z" fill="#EBF3EC"/>
<path d="M0 44H51.2542L51.2285 66.2488H3.99016H0V44Z" fill="#F26829"/>
<path d="M4.37298 70.6235L0 66.2412H4.37298V70.6235Z" fill="#C65723"/>
<path d="M56.1997 22.5756L45.0273 14.0938H56.1997V22.5756Z" fill="#D6DBD5"/>
<path d="M13.5223 50.1V60H11.4523V50.1H13.5223ZM7.0873 50.1V60H5.0173V50.1H7.0873ZM12.5323 54.165V55.83H6.0523V54.165H12.5323ZM23.9662 50.1V51.765H20.6512V60H18.5812V51.765H15.2512V50.1H23.9662ZM36.4577 50.1V60H34.5827V54.84L34.6877 51.945H34.6577L31.9127 60H30.2177L27.4877 51.945H27.4577L27.5627 54.84V60H25.6877V50.1H28.6877L30.4727 55.5L31.1027 57.735H31.1327L31.7777 55.515L33.5477 50.1H36.4577ZM41.1324 58.335H46.3524V60H39.0624V50.1H41.1324V58.335Z" fill="white"/>
</svg>
