<svg width="57" height="80" viewBox="0 0 57 80" fill="none" xmlns="http://www.w3.org/2000/svg">
<path d="M55.7992 76.9745V14.062L43.3855 0.0318867C32.4107 0.0106289 9.77836 7.79877e-06 7.04726 0C4.42345 -7.49232e-06 4.00026 1.65811 4.00026 3.76263C4.00966 27.1675 4.02283 74.5702 4.00026 76.9426C3.97769 79.315 5.43908 79.9718 6.65227 79.9718C21.2948 79.9931 51.1046 80.0228 53.2036 79.9718C55.3027 79.9208 55.8086 77.9523 55.7992 76.9745Z" fill="#E3E9E1"/>
<path d="M43.7588 14.0624V0.0322266L56.1725 14.0624H43.7588Z" fill="#EBF3EC"/>
<path d="M0 44H51.2542L51.2285 66.2488H3.99016H0V44Z" fill="#D62E2E"/>
<path d="M4.37298 70.6235L0 66.2412H4.37298V70.6235Z" fill="#9B1919"/>
<path d="M56.1997 22.5756L45.0273 14.0938H56.1997V22.5756Z" fill="#D6DBD5"/>
<path d="M18.5838 50.1C19.3438 50.1 19.9938 50.23 20.5338 50.49C21.0738 50.74 21.4888 51.105 21.7788 51.585C22.0788 52.055 22.2288 52.625 22.2288 53.295C22.2288 53.965 22.0788 54.54 21.7788 55.02C21.4888 55.49 21.0738 55.855 20.5338 56.115C19.9938 56.365 19.3438 56.49 18.5838 56.49H16.4988V60H14.4288V50.1H18.5838ZM18.2688 54.855C18.8888 54.855 19.3538 54.725 19.6638 54.465C19.9738 54.195 20.1288 53.805 20.1288 53.295C20.1288 52.775 19.9738 52.385 19.6638 52.125C19.3538 51.865 18.8888 51.735 18.2688 51.735H16.4988V54.855H18.2688ZM27.9811 50.1C29.5311 50.1 30.7311 50.53 31.5811 51.39C32.4311 52.24 32.8561 53.46 32.8561 55.05C32.8561 56.63 32.4311 57.85 31.5811 58.71C30.7311 59.57 29.5311 60 27.9811 60H24.1561V50.1H27.9811ZM27.8761 58.35C28.8161 58.35 29.5211 58.07 29.9911 57.51C30.4711 56.94 30.7111 56.12 30.7111 55.05C30.7111 53.98 30.4711 53.165 29.9911 52.605C29.5211 52.035 28.8161 51.75 27.8761 51.75H26.2261V58.35H27.8761ZM42.3773 51.765H37.0373V54.285H41.2523V55.95H37.0373V60H34.9673V50.1H42.3773V51.765Z" fill="white"/>
</svg>
