<svg width="57" height="80" viewBox="0 0 57 80" fill="none" xmlns="http://www.w3.org/2000/svg">
<path d="M56.1723 76.9745V14.062L43.7586 0.0318867C32.7837 0.0106289 10.1514 7.79877e-06 7.4203 0C4.7965 -7.49232e-06 4.37331 1.65811 4.37331 3.76263C4.38271 27.1675 4.39588 74.5702 4.37331 76.9426C4.35073 79.315 5.81213 79.9718 7.02532 79.9718C21.6678 79.9931 51.4776 80.0228 53.5767 79.9718C55.6757 79.9208 56.1817 77.9523 56.1723 76.9745Z" fill="#E3E9E1"/>
<path d="M43.7588 14.0624V0.0322266L56.1725 14.0624H43.7588Z" fill="#EBF3EC"/>
<path d="M0 44H51.2542L51.2285 66.2488H3.99016H0V44Z" fill="#EB6527"/>
<path d="M4.37298 70.6235L0 66.2412H4.37298V70.6235Z" fill="#BE4107"/>
<path d="M56.1997 22.5756L45.0273 14.0938H56.1997V22.5756Z" fill="#D6DBD5"/>
<path d="M16.2698 50.1C17.0298 50.1 17.6798 50.23 18.2198 50.49C18.7598 50.74 19.1748 51.105 19.4648 51.585C19.7648 52.055 19.9148 52.625 19.9148 53.295C19.9148 53.965 19.7648 54.54 19.4648 55.02C19.1748 55.49 18.7598 55.855 18.2198 56.115C17.6798 56.365 17.0298 56.49 16.2698 56.49H14.1848V60H12.1148V50.1H16.2698ZM15.9548 54.855C16.5748 54.855 17.0398 54.725 17.3498 54.465C17.6598 54.195 17.8148 53.805 17.8148 53.295C17.8148 52.775 17.6598 52.385 17.3498 52.125C17.0398 51.865 16.5748 51.735 15.9548 51.735H14.1848V54.855H15.9548ZM25.9971 50.1C26.7571 50.1 27.4071 50.23 27.9471 50.49C28.4871 50.74 28.9021 51.105 29.1921 51.585C29.4921 52.055 29.6421 52.625 29.6421 53.295C29.6421 53.965 29.4921 54.54 29.1921 55.02C28.9021 55.49 28.4871 55.855 27.9471 56.115C27.4071 56.365 26.7571 56.49 25.9971 56.49H23.9121V60H21.8421V50.1H25.9971ZM25.6821 54.855C26.3021 54.855 26.7671 54.725 27.0771 54.465C27.3871 54.195 27.5421 53.805 27.5421 53.295C27.5421 52.775 27.3871 52.385 27.0771 52.125C26.7671 51.865 26.3021 51.735 25.6821 51.735H23.9121V54.855H25.6821ZM39.2822 50.1V51.765H35.9672V60H33.8972V51.765H30.5672V50.1H39.2822Z" fill="white"/>
</svg>
