<svg width="57" height="80" viewBox="0 0 57 80" fill="none" xmlns="http://www.w3.org/2000/svg">
<path d="M56.1723 76.9745V14.062L43.7586 0.0318867C32.7837 0.0106289 10.1514 7.79877e-06 7.4203 0C4.7965 -7.49232e-06 4.37331 1.65811 4.37331 3.76263C4.38271 27.1675 4.39588 74.5702 4.37331 76.9426C4.35073 79.315 5.81213 79.9718 7.02532 79.9718C21.6678 79.9931 51.4776 80.0228 53.5767 79.9718C55.6757 79.9208 56.1817 77.9523 56.1723 76.9745Z" fill="#E3E9E1"/>
<path d="M43.7588 14.0624V0.0322266L56.1725 14.0624H43.7588Z" fill="#EBF3EC"/>
<path d="M0 44H51.2542L51.2285 66.2488H3.99016H0V44Z" fill="#C8BF48"/>
<path d="M4.37298 70.6235L0 66.2412H4.37298V70.6235Z" fill="#8B8531"/>
<path d="M56.1997 22.5756L45.0273 14.0938H56.1997V22.5756Z" fill="#D6DBD5"/>
<path d="M15.6522 50.1C16.7722 50.1 17.6522 50.37 18.2922 50.91C18.9322 51.45 19.2522 52.175 19.2522 53.085C19.2522 54.055 18.9322 54.8 18.2922 55.32C17.6522 55.83 16.7772 56.085 15.6672 56.085L15.4572 56.205H13.3272V60H11.2872V50.1H15.6522ZM15.4122 54.63C15.9922 54.63 16.4222 54.515 16.7022 54.285C16.9922 54.045 17.1372 53.68 17.1372 53.19C17.1372 52.7 16.9922 52.34 16.7022 52.11C16.4222 51.87 15.9922 51.75 15.4122 51.75H13.3272V54.63H15.4122ZM16.6272 55.065L19.8372 60H17.5122L14.8572 55.665L16.6272 55.065ZM30.1075 60H27.9625L27.1375 57.585H23.3425L22.5175 60H20.4025L24.0175 50.1H26.4925L30.1075 60ZM23.8075 56.055H26.6725L25.2325 51.735L23.8075 56.055ZM35.971 50.1C37.091 50.1 37.971 50.37 38.611 50.91C39.251 51.45 39.571 52.175 39.571 53.085C39.571 54.055 39.251 54.8 38.611 55.32C37.971 55.83 37.096 56.085 35.986 56.085L35.776 56.205H33.646V60H31.606V50.1H35.971ZM35.731 54.63C36.311 54.63 36.741 54.515 37.021 54.285C37.311 54.045 37.456 53.68 37.456 53.19C37.456 52.7 37.311 52.34 37.021 52.11C36.741 51.87 36.311 51.75 35.731 51.75H33.646V54.63H35.731ZM36.946 55.065L40.156 60H37.831L35.176 55.665L36.946 55.065Z" fill="white"/>
</svg>
