<svg width="57" height="80" viewBox="0 0 57 80" fill="none" xmlns="http://www.w3.org/2000/svg">
<path d="M56.1723 76.9745V14.062L43.7586 0.0318867C32.7837 0.0106289 10.1514 7.79877e-06 7.4203 0C4.7965 -7.49232e-06 4.37331 1.65811 4.37331 3.76263C4.38271 27.1675 4.39588 74.5702 4.37331 76.9426C4.35073 79.315 5.81213 79.9718 7.02532 79.9718C21.6678 79.9931 51.4776 80.0228 53.5767 79.9718C55.6757 79.9208 56.1817 77.9523 56.1723 76.9745Z" fill="#E3E9E1"/>
<path d="M43.7588 14.0624V0.0322266L56.1725 14.0624H43.7588Z" fill="#EBF3EC"/>
<path d="M0 44H51.2542L51.2285 66.2488H3.99016H0V44Z" fill="#D56FA4"/>
<path d="M4.37298 70.6235L0 66.2412H4.37298V70.6235Z" fill="#A1577D"/>
<path d="M56.1997 22.5756L45.0273 14.0938H56.1997V22.5756Z" fill="#D6DBD5"/>
<path d="M10.6758 49.95C11.5758 49.95 12.3658 50.105 13.0458 50.415C13.7258 50.725 14.3058 51.185 14.7858 51.795L13.6308 53.13C13.2208 52.61 12.7708 52.23 12.2808 51.99C11.8008 51.74 11.2408 51.615 10.6008 51.615C10.1808 51.615 9.83076 51.67 9.55076 51.78C9.28076 51.89 9.08076 52.035 8.95076 52.215C8.83076 52.395 8.77076 52.595 8.77076 52.815C8.77076 53.085 8.87576 53.315 9.08576 53.505C9.29576 53.685 9.65576 53.835 10.1658 53.955L12.0108 54.375C12.9908 54.595 13.6908 54.925 14.1108 55.365C14.5408 55.795 14.7558 56.355 14.7558 57.045C14.7558 57.695 14.5858 58.255 14.2458 58.725C13.9058 59.185 13.4308 59.54 12.8208 59.79C12.2108 60.03 11.5108 60.15 10.7208 60.15C10.0308 60.15 9.39576 60.07 8.81576 59.91C8.24576 59.74 7.73576 59.51 7.28576 59.22C6.83576 58.93 6.46076 58.595 6.16076 58.215L7.33076 56.82C7.56076 57.14 7.84576 57.425 8.18576 57.675C8.52576 57.925 8.91076 58.125 9.34076 58.275C9.78076 58.415 10.2408 58.485 10.7208 58.485C11.1308 58.485 11.4758 58.44 11.7558 58.35C12.0458 58.25 12.2608 58.115 12.4008 57.945C12.5508 57.765 12.6258 57.55 12.6258 57.3C12.6258 57.04 12.5358 56.82 12.3558 56.64C12.1858 56.45 11.8658 56.305 11.3958 56.205L9.38576 55.755C8.80576 55.615 8.30576 55.435 7.88576 55.215C7.47576 54.985 7.16076 54.695 6.94076 54.345C6.73076 53.985 6.62576 53.56 6.62576 53.07C6.62576 52.48 6.78576 51.95 7.10576 51.48C7.42576 51.01 7.88576 50.64 8.48576 50.37C9.09576 50.09 9.82576 49.95 10.6758 49.95ZM25.2658 60H23.1208L22.2958 57.585H18.5008L17.6758 60H15.5608L19.1758 50.1H21.6508L25.2658 60ZM18.9658 56.055H21.8308L20.3908 51.735L18.9658 56.055ZM30.3061 49.95C31.2061 49.95 31.9961 50.105 32.6761 50.415C33.3561 50.725 33.9361 51.185 34.4161 51.795L33.2611 53.13C32.8511 52.61 32.4011 52.23 31.9111 51.99C31.4311 51.74 30.8711 51.615 30.2311 51.615C29.8111 51.615 29.4611 51.67 29.1811 51.78C28.9111 51.89 28.7111 52.035 28.5811 52.215C28.4611 52.395 28.4011 52.595 28.4011 52.815C28.4011 53.085 28.5061 53.315 28.7161 53.505C28.9261 53.685 29.2861 53.835 29.7961 53.955L31.6411 54.375C32.6211 54.595 33.3211 54.925 33.7411 55.365C34.1711 55.795 34.3861 56.355 34.3861 57.045C34.3861 57.695 34.2161 58.255 33.8761 58.725C33.5361 59.185 33.0611 59.54 32.4511 59.79C31.8411 60.03 31.1411 60.15 30.3511 60.15C29.6611 60.15 29.0261 60.07 28.4461 59.91C27.8761 59.74 27.3661 59.51 26.9161 59.22C26.4661 58.93 26.0911 58.595 25.7911 58.215L26.9611 56.82C27.1911 57.14 27.4761 57.425 27.8161 57.675C28.1561 57.925 28.5411 58.125 28.9711 58.275C29.4111 58.415 29.8711 58.485 30.3511 58.485C30.7611 58.485 31.1061 58.44 31.3861 58.35C31.6761 58.25 31.8911 58.115 32.0311 57.945C32.1811 57.765 32.2561 57.55 32.2561 57.3C32.2561 57.04 32.1661 56.82 31.9861 56.64C31.8161 56.45 31.4961 56.305 31.0261 56.205L29.0161 55.755C28.4361 55.615 27.9361 55.435 27.5161 55.215C27.1061 54.985 26.7911 54.695 26.5711 54.345C26.3611 53.985 26.2561 53.56 26.2561 53.07C26.2561 52.48 26.4161 51.95 26.7361 51.48C27.0561 51.01 27.5161 50.64 28.1161 50.37C28.7261 50.09 29.4561 49.95 30.3061 49.95ZM39.9894 49.95C40.8894 49.95 41.6794 50.105 42.3594 50.415C43.0394 50.725 43.6194 51.185 44.0994 51.795L42.9444 53.13C42.5344 52.61 42.0844 52.23 41.5944 51.99C41.1144 51.74 40.5544 51.615 39.9144 51.615C39.4944 51.615 39.1444 51.67 38.8644 51.78C38.5944 51.89 38.3944 52.035 38.2644 52.215C38.1444 52.395 38.0844 52.595 38.0844 52.815C38.0844 53.085 38.1894 53.315 38.3994 53.505C38.6094 53.685 38.9694 53.835 39.4794 53.955L41.3244 54.375C42.3044 54.595 43.0044 54.925 43.4244 55.365C43.8544 55.795 44.0694 56.355 44.0694 57.045C44.0694 57.695 43.8994 58.255 43.5594 58.725C43.2194 59.185 42.7444 59.54 42.1344 59.79C41.5244 60.03 40.8244 60.15 40.0344 60.15C39.3444 60.15 38.7094 60.07 38.1294 59.91C37.5594 59.74 37.0494 59.51 36.5994 59.22C36.1494 58.93 35.7744 58.595 35.4744 58.215L36.6444 56.82C36.8744 57.14 37.1594 57.425 37.4994 57.675C37.8394 57.925 38.2244 58.125 38.6544 58.275C39.0944 58.415 39.5544 58.485 40.0344 58.485C40.4444 58.485 40.7894 58.44 41.0694 58.35C41.3594 58.25 41.5744 58.115 41.7144 57.945C41.8644 57.765 41.9394 57.55 41.9394 57.3C41.9394 57.04 41.8494 56.82 41.6694 56.64C41.4994 56.45 41.1794 56.305 40.7094 56.205L38.6994 55.755C38.1194 55.615 37.6194 55.435 37.1994 55.215C36.7894 54.985 36.4744 54.695 36.2544 54.345C36.0444 53.985 35.9394 53.56 35.9394 53.07C35.9394 52.48 36.0994 51.95 36.4194 51.48C36.7394 51.01 37.1994 50.64 37.7994 50.37C38.4094 50.09 39.1394 49.95 39.9894 49.95Z" fill="white"/>
</svg>
