<svg width="57" height="80" viewBox="0 0 57 80" fill="none" xmlns="http://www.w3.org/2000/svg">
<path d="M56.1723 76.9745V14.062L43.7586 0.0318867C32.7837 0.0106289 10.1514 7.79877e-06 7.4203 0C4.7965 -7.49232e-06 4.37331 1.65811 4.37331 3.76263C4.38271 27.1675 4.39588 74.5702 4.37331 76.9426C4.35073 79.315 5.81213 79.9718 7.02532 79.9718C21.6678 79.9931 51.4776 80.0228 53.5767 79.9718C55.6757 79.9208 56.1817 77.9523 56.1723 76.9745Z" fill="#E3E9E1"/>
<path d="M43.7588 14.0624V0.0322266L56.1725 14.0624H43.7588Z" fill="#EBF3EC"/>
<path d="M0 44H51.2542L51.2285 66.2488H3.99016H0V44Z" fill="#2DB43B"/>
<path d="M4.37298 70.6235L0 66.2412H4.37298V70.6235Z" fill="#299734"/>
<path d="M56.1997 22.5756L45.0273 14.0938H56.1997V22.5756Z" fill="#D6DBD5"/>
<path d="M15.6947 60H13.2347L11.0747 56.49L8.94473 60H6.57473L9.97973 55.005L6.81473 50.1H9.24473L11.2397 53.43L13.2647 50.1H15.5147L12.3347 54.93L15.6947 60ZM19.3195 58.335H24.5395V60H17.2495V50.1H19.3195V58.335ZM29.9032 49.95C30.8032 49.95 31.5932 50.105 32.2732 50.415C32.9532 50.725 33.5332 51.185 34.0132 51.795L32.8582 53.13C32.4482 52.61 31.9982 52.23 31.5082 51.99C31.0282 51.74 30.4682 51.615 29.8282 51.615C29.4082 51.615 29.0582 51.67 28.7782 51.78C28.5082 51.89 28.3082 52.035 28.1782 52.215C28.0582 52.395 27.9982 52.595 27.9982 52.815C27.9982 53.085 28.1032 53.315 28.3132 53.505C28.5232 53.685 28.8832 53.835 29.3932 53.955L31.2382 54.375C32.2182 54.595 32.9182 54.925 33.3382 55.365C33.7682 55.795 33.9832 56.355 33.9832 57.045C33.9832 57.695 33.8132 58.255 33.4732 58.725C33.1332 59.185 32.6582 59.54 32.0482 59.79C31.4382 60.03 30.7382 60.15 29.9482 60.15C29.2582 60.15 28.6232 60.07 28.0432 59.91C27.4732 59.74 26.9632 59.51 26.5132 59.22C26.0632 58.93 25.6882 58.595 25.3882 58.215L26.5582 56.82C26.7882 57.14 27.0732 57.425 27.4132 57.675C27.7532 57.925 28.1382 58.125 28.5682 58.275C29.0082 58.415 29.4682 58.485 29.9482 58.485C30.3582 58.485 30.7032 58.44 30.9832 58.35C31.2732 58.25 31.4882 58.115 31.6282 57.945C31.7782 57.765 31.8532 57.55 31.8532 57.3C31.8532 57.04 31.7632 56.82 31.5832 56.64C31.4132 56.45 31.0932 56.305 30.6232 56.205L28.6132 55.755C28.0332 55.615 27.5332 55.435 27.1132 55.215C26.7032 54.985 26.3882 54.695 26.1682 54.345C25.9582 53.985 25.8532 53.56 25.8532 53.07C25.8532 52.48 26.0132 51.95 26.3332 51.48C26.6532 51.01 27.1132 50.64 27.7132 50.37C28.3232 50.09 29.0532 49.95 29.9032 49.95ZM43.939 60H41.479L39.319 56.49L37.189 60H34.819L38.224 55.005L35.059 50.1H37.489L39.484 53.43L41.509 50.1H43.759L40.579 54.93L43.939 60Z" fill="white"/>
</svg>
