<svg width="57" height="80" viewBox="0 0 57 80" fill="none" xmlns="http://www.w3.org/2000/svg">
<path d="M56.1723 76.9745V14.062L43.7586 0.0318867C32.7837 0.0106289 10.1514 7.79877e-06 7.4203 0C4.7965 -7.49232e-06 4.37331 1.65811 4.37331 3.76263C4.38271 27.1675 4.39588 74.5702 4.37331 76.9426C4.35073 79.315 5.81213 79.9718 7.02532 79.9718C21.6678 79.9931 51.4776 80.0228 53.5767 79.9718C55.6757 79.9208 56.1817 77.9523 56.1723 76.9745Z" fill="#E3E9E1"/>
<path d="M43.7588 14.0624V0.0322266L56.1725 14.0624H43.7588Z" fill="#EBF3EC"/>
<path d="M0 44H51.2542L51.2285 66.2488H3.99016H0V44Z" fill="#C8BF48"/>
<path d="M4.37298 70.6235L0 66.2412H4.37298V70.6235Z" fill="#8B8531"/>
<path d="M56.1997 22.5756L45.0273 14.0938H56.1997V22.5756Z" fill="#D6DBD5"/>
<path d="M15.6477 59.07L15.2727 58.35H22.2027V60H13.9677V58.44L20.3577 51.03L20.7177 51.75H14.0877V50.1H22.0227V51.66L15.6477 59.07ZM26.1899 50.1V60H24.1199V50.1H26.1899ZM32.9485 50.1C33.7085 50.1 34.3585 50.23 34.8985 50.49C35.4385 50.74 35.8535 51.105 36.1435 51.585C36.4435 52.055 36.5935 52.625 36.5935 53.295C36.5935 53.965 36.4435 54.54 36.1435 55.02C35.8535 55.49 35.4385 55.855 34.8985 56.115C34.3585 56.365 33.7085 56.49 32.9485 56.49H30.8635V60H28.7935V50.1H32.9485ZM32.6335 54.855C33.2535 54.855 33.7185 54.725 34.0285 54.465C34.3385 54.195 34.4935 53.805 34.4935 53.295C34.4935 52.775 34.3385 52.385 34.0285 52.125C33.7185 51.865 33.2535 51.735 32.6335 51.735H30.8635V54.855H32.6335Z" fill="white"/>
</svg>
