<svg width="57" height="80" viewBox="0 0 57 80" fill="none" xmlns="http://www.w3.org/2000/svg">
<path d="M56.1723 76.9745V14.062L43.7586 0.0318867C32.7837 0.0106289 10.1514 7.79877e-06 7.4203 0C4.7965 -7.49232e-06 4.37331 1.65811 4.37331 3.76263C4.38271 27.1675 4.39588 74.5702 4.37331 76.9426C4.35073 79.315 5.81213 79.9718 7.02532 79.9718C21.6678 79.9931 51.4776 80.0228 53.5767 79.9718C55.6757 79.9208 56.1817 77.9523 56.1723 76.9745Z" fill="#E3E9E1"/>
<path d="M43.7588 14.0624V0.0322266L56.1725 14.0624H43.7588Z" fill="#EBF3EC"/>
<path d="M0 44H51.2542L51.2285 66.2488H3.99016H0V44Z" fill="#358CD4"/>
<path d="M4.37298 70.6235L0 66.2412H4.37298V70.6235Z" fill="#2772B0"/>
<path d="M56.1997 22.5756L45.0273 14.0938H56.1997V22.5756Z" fill="#D6DBD5"/>
<path d="M20.2163 57.27C20.0263 57.91 19.7263 58.445 19.3163 58.875C18.9063 59.305 18.4213 59.625 17.8613 59.835C17.3013 60.045 16.6863 60.15 16.0163 60.15C15.0363 60.15 14.1863 59.945 13.4663 59.535C12.7563 59.125 12.2063 58.54 11.8163 57.78C11.4363 57.02 11.2463 56.11 11.2463 55.05C11.2463 53.99 11.4363 53.08 11.8163 52.32C12.2063 51.56 12.7563 50.975 13.4663 50.565C14.1863 50.155 15.0263 49.95 15.9863 49.95C16.6663 49.95 17.2813 50.045 17.8313 50.235C18.3813 50.415 18.8463 50.695 19.2263 51.075C19.6163 51.455 19.9013 51.935 20.0813 52.515L18.2063 53.31C18.0363 52.71 17.7763 52.285 17.4263 52.035C17.0763 51.775 16.6263 51.645 16.0763 51.645C15.5363 51.645 15.0613 51.775 14.6513 52.035C14.2513 52.295 13.9413 52.68 13.7213 53.19C13.5013 53.69 13.3913 54.31 13.3913 55.05C13.3913 55.78 13.4913 56.4 13.6913 56.91C13.9013 57.42 14.2063 57.805 14.6063 58.065C15.0063 58.325 15.4963 58.455 16.0763 58.455C16.6163 58.455 17.0813 58.31 17.4713 58.02C17.8713 57.73 18.1513 57.29 18.3113 56.7L20.2163 57.27ZM25.6255 49.95C26.5255 49.95 27.3155 50.105 27.9955 50.415C28.6755 50.725 29.2555 51.185 29.7355 51.795L28.5805 53.13C28.1705 52.61 27.7205 52.23 27.2305 51.99C26.7505 51.74 26.1905 51.615 25.5505 51.615C25.1305 51.615 24.7805 51.67 24.5005 51.78C24.2305 51.89 24.0305 52.035 23.9005 52.215C23.7805 52.395 23.7205 52.595 23.7205 52.815C23.7205 53.085 23.8255 53.315 24.0355 53.505C24.2455 53.685 24.6055 53.835 25.1155 53.955L26.9605 54.375C27.9405 54.595 28.6405 54.925 29.0605 55.365C29.4905 55.795 29.7055 56.355 29.7055 57.045C29.7055 57.695 29.5355 58.255 29.1955 58.725C28.8555 59.185 28.3805 59.54 27.7705 59.79C27.1605 60.03 26.4605 60.15 25.6705 60.15C24.9805 60.15 24.3455 60.07 23.7655 59.91C23.1955 59.74 22.6855 59.51 22.2355 59.22C21.7855 58.93 21.4105 58.595 21.1105 58.215L22.2805 56.82C22.5105 57.14 22.7955 57.425 23.1355 57.675C23.4755 57.925 23.8605 58.125 24.2905 58.275C24.7305 58.415 25.1905 58.485 25.6705 58.485C26.0805 58.485 26.4255 58.44 26.7055 58.35C26.9955 58.25 27.2105 58.115 27.3505 57.945C27.5005 57.765 27.5755 57.55 27.5755 57.3C27.5755 57.04 27.4855 56.82 27.3055 56.64C27.1355 56.45 26.8155 56.305 26.3455 56.205L24.3355 55.755C23.7555 55.615 23.2555 55.435 22.8355 55.215C22.4255 54.985 22.1105 54.695 21.8905 54.345C21.6805 53.985 21.5755 53.56 21.5755 53.07C21.5755 52.48 21.7355 51.95 22.0555 51.48C22.3755 51.01 22.8355 50.64 23.4355 50.37C24.0455 50.09 24.7755 49.95 25.6255 49.95ZM35.3089 49.95C36.2089 49.95 36.9989 50.105 37.6789 50.415C38.3589 50.725 38.9389 51.185 39.4189 51.795L38.2639 53.13C37.8539 52.61 37.4039 52.23 36.9139 51.99C36.4339 51.74 35.8739 51.615 35.2339 51.615C34.8139 51.615 34.4639 51.67 34.1839 51.78C33.9139 51.89 33.7139 52.035 33.5839 52.215C33.4639 52.395 33.4039 52.595 33.4039 52.815C33.4039 53.085 33.5089 53.315 33.7189 53.505C33.9289 53.685 34.2889 53.835 34.7989 53.955L36.6439 54.375C37.6239 54.595 38.3239 54.925 38.7439 55.365C39.1739 55.795 39.3889 56.355 39.3889 57.045C39.3889 57.695 39.2189 58.255 38.8789 58.725C38.5389 59.185 38.0639 59.54 37.4539 59.79C36.8439 60.03 36.1439 60.15 35.3539 60.15C34.6639 60.15 34.0289 60.07 33.4489 59.91C32.8789 59.74 32.3689 59.51 31.9189 59.22C31.4689 58.93 31.0939 58.595 30.7939 58.215L31.9639 56.82C32.1939 57.14 32.4789 57.425 32.8189 57.675C33.1589 57.925 33.5439 58.125 33.9739 58.275C34.4139 58.415 34.8739 58.485 35.3539 58.485C35.7639 58.485 36.1089 58.44 36.3889 58.35C36.6789 58.25 36.8939 58.115 37.0339 57.945C37.1839 57.765 37.2589 57.55 37.2589 57.3C37.2589 57.04 37.1689 56.82 36.9889 56.64C36.8189 56.45 36.4989 56.305 36.0289 56.205L34.0189 55.755C33.4389 55.615 32.9389 55.435 32.5189 55.215C32.1089 54.985 31.7939 54.695 31.5739 54.345C31.3639 53.985 31.2589 53.56 31.2589 53.07C31.2589 52.48 31.4189 51.95 31.7389 51.48C32.0589 51.01 32.5189 50.64 33.1189 50.37C33.7289 50.09 34.4589 49.95 35.3089 49.95Z" fill="white"/>
</svg>
