<svg width="57" height="80" viewBox="0 0 57 80" fill="none" xmlns="http://www.w3.org/2000/svg">
<path d="M56.1723 76.9745V14.062L43.7586 0.0318867C32.7837 0.0106289 10.1514 7.79877e-06 7.4203 0C4.7965 -7.49232e-06 4.37331 1.65811 4.37331 3.76263C4.38271 27.1675 4.39588 74.5702 4.37331 76.9426C4.35073 79.315 5.81213 79.9718 7.02532 79.9718C21.6678 79.9931 51.4776 80.0228 53.5767 79.9718C55.6757 79.9208 56.1817 77.9523 56.1723 76.9745Z" fill="#E3E9E1"/>
<path d="M43.7588 14.0624V0.0322266L56.1725 14.0624H43.7588Z" fill="#EBF3EC"/>
<path d="M0 44H51.2542L51.2285 66.2488H3.99016H0V44Z" fill="#2D4BB4"/>
<path d="M4.37298 70.6235L0 66.2412H4.37298V70.6235Z" fill="#1E327A"/>
<path d="M56.1997 22.5756L45.0273 14.0938H56.1997V22.5756Z" fill="#D6DBD5"/>
<path d="M14.2699 50.1C15.8199 50.1 17.0199 50.53 17.8699 51.39C18.7199 52.24 19.1449 53.46 19.1449 55.05C19.1449 56.63 18.7199 57.85 17.8699 58.71C17.0199 59.57 15.8199 60 14.2699 60H10.4449V50.1H14.2699ZM14.1649 58.35C15.1049 58.35 15.8099 58.07 16.2799 57.51C16.7599 56.94 16.9999 56.12 16.9999 55.05C16.9999 53.98 16.7599 53.165 16.2799 52.605C15.8099 52.035 15.1049 51.75 14.1649 51.75H12.5149V58.35H14.1649ZM25.5312 49.95C26.5112 49.95 27.3562 50.155 28.0662 50.565C28.7762 50.975 29.3212 51.56 29.7012 52.32C30.0912 53.08 30.2862 53.99 30.2862 55.05C30.2862 56.11 30.0912 57.02 29.7012 57.78C29.3212 58.54 28.7762 59.125 28.0662 59.535C27.3562 59.945 26.5112 60.15 25.5312 60.15C24.5512 60.15 23.7012 59.945 22.9812 59.535C22.2712 59.125 21.7212 58.54 21.3312 57.78C20.9512 57.02 20.7612 56.11 20.7612 55.05C20.7612 53.99 20.9512 53.08 21.3312 52.32C21.7212 51.56 22.2712 50.975 22.9812 50.565C23.7012 50.155 24.5512 49.95 25.5312 49.95ZM25.5312 51.645C24.9712 51.645 24.4962 51.775 24.1062 52.035C23.7162 52.295 23.4162 52.68 23.2062 53.19C23.0062 53.69 22.9062 54.31 22.9062 55.05C22.9062 55.78 23.0062 56.4 23.2062 56.91C23.4162 57.42 23.7162 57.805 24.1062 58.065C24.4962 58.325 24.9712 58.455 25.5312 58.455C26.0812 58.455 26.5512 58.325 26.9412 58.065C27.3312 57.805 27.6262 57.42 27.8262 56.91C28.0362 56.4 28.1412 55.78 28.1412 55.05C28.1412 54.31 28.0362 53.69 27.8262 53.19C27.6262 52.68 27.3312 52.295 26.9412 52.035C26.5512 51.775 26.0812 51.645 25.5312 51.645ZM40.8793 57.27C40.6893 57.91 40.3893 58.445 39.9793 58.875C39.5693 59.305 39.0843 59.625 38.5243 59.835C37.9643 60.045 37.3493 60.15 36.6793 60.15C35.6993 60.15 34.8493 59.945 34.1293 59.535C33.4193 59.125 32.8693 58.54 32.4793 57.78C32.0993 57.02 31.9093 56.11 31.9093 55.05C31.9093 53.99 32.0993 53.08 32.4793 52.32C32.8693 51.56 33.4193 50.975 34.1293 50.565C34.8493 50.155 35.6893 49.95 36.6493 49.95C37.3293 49.95 37.9443 50.045 38.4943 50.235C39.0443 50.415 39.5093 50.695 39.8893 51.075C40.2793 51.455 40.5643 51.935 40.7443 52.515L38.8693 53.31C38.6993 52.71 38.4393 52.285 38.0893 52.035C37.7393 51.775 37.2893 51.645 36.7393 51.645C36.1993 51.645 35.7243 51.775 35.3143 52.035C34.9143 52.295 34.6043 52.68 34.3843 53.19C34.1643 53.69 34.0543 54.31 34.0543 55.05C34.0543 55.78 34.1543 56.4 34.3543 56.91C34.5643 57.42 34.8693 57.805 35.2693 58.065C35.6693 58.325 36.1593 58.455 36.7393 58.455C37.2793 58.455 37.7443 58.31 38.1343 58.02C38.5343 57.73 38.8143 57.29 38.9743 56.7L40.8793 57.27Z" fill="white"/>
</svg>
