<svg width="57" height="80" viewBox="0 0 57 80" fill="none" xmlns="http://www.w3.org/2000/svg">
<path d="M56.1723 76.9745V14.062L43.7586 0.0318867C32.7837 0.0106289 10.1514 7.79877e-06 7.4203 0C4.7965 -7.49232e-06 4.37331 1.65811 4.37331 3.76263C4.38271 27.1675 4.39588 74.5702 4.37331 76.9426C4.35073 79.315 5.81213 79.9718 7.02532 79.9718C21.6678 79.9931 51.4776 80.0228 53.5767 79.9718C55.6757 79.9208 56.1817 77.9523 56.1723 76.9745Z" fill="#E3E9E1"/>
<path d="M43.7588 14.0624V0.0322266L56.1725 14.0624H43.7588Z" fill="#EBF3EC"/>
<path d="M0 44H51.2542L51.2285 66.2488H3.99016H0V44Z" fill="#F1D000"/>
<path d="M4.37298 70.6235L0 66.2412H4.37298V70.6235Z" fill="#B49C02"/>
<path d="M56.1997 22.5756L45.0273 14.0938H56.1997V22.5756Z" fill="#D6DBD5"/>
<path d="M23.7678 50.1V56.355C23.7678 57.545 23.4328 58.475 22.7628 59.145C22.0928 59.815 21.1428 60.15 19.9128 60.15C19.0328 60.15 18.3178 59.99 17.7678 59.67C17.2178 59.35 16.8378 58.9 16.6278 58.32C16.4178 57.74 16.3778 57.075 16.5078 56.325L18.5178 55.965C18.3978 56.845 18.4528 57.48 18.6828 57.87C18.9128 58.26 19.3378 58.455 19.9578 58.455C20.6078 58.455 21.0578 58.255 21.3078 57.855C21.5678 57.455 21.6978 56.86 21.6978 56.07V50.1H23.7678ZM29.8373 49.95C30.7373 49.95 31.5273 50.105 32.2073 50.415C32.8873 50.725 33.4673 51.185 33.9473 51.795L32.7923 53.13C32.3823 52.61 31.9323 52.23 31.4423 51.99C30.9623 51.74 30.4023 51.615 29.7623 51.615C29.3423 51.615 28.9923 51.67 28.7123 51.78C28.4423 51.89 28.2423 52.035 28.1123 52.215C27.9923 52.395 27.9323 52.595 27.9323 52.815C27.9323 53.085 28.0373 53.315 28.2473 53.505C28.4573 53.685 28.8173 53.835 29.3273 53.955L31.1723 54.375C32.1523 54.595 32.8523 54.925 33.2723 55.365C33.7023 55.795 33.9173 56.355 33.9173 57.045C33.9173 57.695 33.7473 58.255 33.4073 58.725C33.0673 59.185 32.5923 59.54 31.9823 59.79C31.3723 60.03 30.6723 60.15 29.8823 60.15C29.1923 60.15 28.5573 60.07 27.9773 59.91C27.4073 59.74 26.8973 59.51 26.4473 59.22C25.9973 58.93 25.6223 58.595 25.3223 58.215L26.4923 56.82C26.7223 57.14 27.0073 57.425 27.3473 57.675C27.6873 57.925 28.0723 58.125 28.5023 58.275C28.9423 58.415 29.4023 58.485 29.8823 58.485C30.2923 58.485 30.6373 58.44 30.9173 58.35C31.2073 58.25 31.4223 58.115 31.5623 57.945C31.7123 57.765 31.7873 57.55 31.7873 57.3C31.7873 57.04 31.6973 56.82 31.5173 56.64C31.3473 56.45 31.0273 56.305 30.5573 56.205L28.5473 55.755C27.9673 55.615 27.4673 55.435 27.0473 55.215C26.6373 54.985 26.3223 54.695 26.1023 54.345C25.8923 53.985 25.7873 53.56 25.7873 53.07C25.7873 52.48 25.9473 51.95 26.2673 51.48C26.5873 51.01 27.0473 50.64 27.6473 50.37C28.2573 50.09 28.9873 49.95 29.8373 49.95Z" fill="white"/>
</svg>
