<svg width="57" height="80" viewBox="0 0 57 80" fill="none" xmlns="http://www.w3.org/2000/svg">
<path d="M56.1723 76.9745V14.062L43.7586 0.0318867C32.7837 0.0106289 10.1514 7.79877e-06 7.4203 0C4.7965 -7.49232e-06 4.37331 1.65811 4.37331 3.76263C4.38271 27.1675 4.39588 74.5702 4.37331 76.9426C4.35073 79.315 5.81213 79.9718 7.02532 79.9718C21.6678 79.9931 51.4776 80.0228 53.5767 79.9718C55.6757 79.9208 56.1817 77.9523 56.1723 76.9745Z" fill="#E3E9E1"/>
<path d="M43.7588 14.0624V0.0322266L56.1725 14.0624H43.7588Z" fill="#EBF3EC"/>
<path d="M0 44H51.2542L51.2285 66.2488H3.99016H0V44Z" fill="#F1D000"/>
<path d="M51.2285 66.2488L51.2542 44H38.4407H32.0339H30.5L26.5 66.2488H51.2285Z" fill="#9A228A"/>
<path d="M4.37298 70.6235L0 66.2412H4.37298V70.6235Z" fill="#B49C02"/>
<path d="M56.1997 22.5756L45.0273 14.0938H56.1997V22.5756Z" fill="#D6DBD5"/>
<path d="M16.6993 50.1V56.355C16.6993 57.545 16.3643 58.475 15.6943 59.145C15.0243 59.815 14.0743 60.15 12.8443 60.15C11.9643 60.15 11.2493 59.99 10.6993 59.67C10.1493 59.35 9.76926 58.9 9.55926 58.32C9.34926 57.74 9.30926 57.075 9.43926 56.325L11.4493 55.965C11.3293 56.845 11.3843 57.48 11.6143 57.87C11.8443 58.26 12.2693 58.455 12.8893 58.455C13.5393 58.455 13.9893 58.255 14.2393 57.855C14.4993 57.455 14.6293 56.86 14.6293 56.07V50.1H16.6993ZM22.7687 49.95C23.6687 49.95 24.4587 50.105 25.1387 50.415C25.8187 50.725 26.3987 51.185 26.8787 51.795L25.7238 53.13C25.3137 52.61 24.8637 52.23 24.3737 51.99C23.8937 51.74 23.3337 51.615 22.6937 51.615C22.2737 51.615 21.9237 51.67 21.6437 51.78C21.3737 51.89 21.1737 52.035 21.0437 52.215C20.9237 52.395 20.8637 52.595 20.8637 52.815C20.8637 53.085 20.9687 53.315 21.1787 53.505C21.3887 53.685 21.7487 53.835 22.2587 53.955L24.1037 54.375C25.0837 54.595 25.7837 54.925 26.2038 55.365C26.6338 55.795 26.8488 56.355 26.8488 57.045C26.8488 57.695 26.6787 58.255 26.3387 58.725C25.9987 59.185 25.5237 59.54 24.9137 59.79C24.3037 60.03 23.6037 60.15 22.8137 60.15C22.1237 60.15 21.4887 60.07 20.9087 59.91C20.3387 59.74 19.8287 59.51 19.3787 59.22C18.9287 58.93 18.5537 58.595 18.2537 58.215L19.4237 56.82C19.6537 57.14 19.9387 57.425 20.2787 57.675C20.6187 57.925 21.0037 58.125 21.4337 58.275C21.8737 58.415 22.3337 58.485 22.8137 58.485C23.2237 58.485 23.5687 58.44 23.8487 58.35C24.1387 58.25 24.3537 58.115 24.4937 57.945C24.6437 57.765 24.7187 57.55 24.7187 57.3C24.7187 57.04 24.6287 56.82 24.4487 56.64C24.2787 56.45 23.9587 56.305 23.4887 56.205L21.4787 55.755C20.8987 55.615 20.3987 55.435 19.9787 55.215C19.5687 54.985 19.2537 54.695 19.0337 54.345C18.8237 53.985 18.7187 53.56 18.7187 53.07C18.7187 52.48 18.8787 51.95 19.1987 51.48C19.5187 51.01 19.9787 50.64 20.5787 50.37C21.1887 50.09 21.9187 49.95 22.7687 49.95ZM41.4195 60H38.9595L36.7995 56.49L34.6695 60H32.2995L35.7045 55.005L32.5395 50.1H34.9695L36.9645 53.43L38.9895 50.1H41.2395L38.0595 54.93L41.4195 60Z" fill="white"/>
</svg>
