<svg width="57" height="80" viewBox="0 0 57 80" fill="none" xmlns="http://www.w3.org/2000/svg">
<path d="M56.1723 76.9745V14.062L43.7586 0.0318867C32.7837 0.0106289 10.1514 7.79877e-06 7.4203 0C4.7965 -7.49232e-06 4.37331 1.65811 4.37331 3.76263C4.38271 27.1675 4.39588 74.5702 4.37331 76.9426C4.35073 79.315 5.81213 79.9718 7.02532 79.9718C21.6678 79.9931 51.4776 80.0228 53.5767 79.9718C55.6757 79.9208 56.1817 77.9523 56.1723 76.9745Z" fill="#E3E9E1"/>
<path d="M43.7588 14.0624V0.0322266L56.1725 14.0624H43.7588Z" fill="#EBF3EC"/>
<path d="M0 44H51.2542L51.2285 66.2488H3.99016H0V44Z" fill="#488CC8"/>
<path d="M4.37298 70.6235L0 66.2412H4.37298V70.6235Z" fill="#3C78AD"/>
<path d="M56.1997 22.5756L45.0273 14.0938H56.1997V22.5756Z" fill="#D6DBD5"/>
<path d="M11.1083 58.335H16.3283V60H9.0383V50.1H11.1083V58.335ZM20.1471 50.1V60H18.0771V50.1H20.1471ZM31.2556 50.1V60H28.8856L25.4206 54.18L24.5656 52.56H24.5506L24.6106 54.27V60H22.7506V50.1H25.1056L28.5706 55.905L29.4256 57.54H29.4556L29.3956 55.83V50.1H31.2556ZM42.4045 50.1L37.8745 55.245L37.7095 55.08L35.2345 57.885L34.9195 55.965L40.0045 50.1H42.4045ZM35.9395 50.1V60H33.8695V50.1H35.9395ZM38.4445 53.52L42.5245 60H40.1545L36.8545 54.675L38.4445 53.52Z" fill="white"/>
</svg>
