<svg width="57" height="80" viewBox="0 0 57 80" fill="none" xmlns="http://www.w3.org/2000/svg">
<path d="M56.1723 76.9745V14.062L43.7586 0.0318867C32.7837 0.0106289 10.1514 7.79877e-06 7.4203 0C4.7965 -7.49232e-06 4.37331 1.65811 4.37331 3.76263C4.38271 27.1675 4.39588 74.5702 4.37331 76.9426C4.35073 79.315 5.81213 79.9718 7.02532 79.9718C21.6678 79.9931 51.4776 80.0228 53.5767 79.9718C55.6757 79.9208 56.1817 77.9523 56.1723 76.9745Z" fill="#E3E9E1"/>
<path d="M43.7588 14.0624V0.0322266L56.1725 14.0624H43.7588Z" fill="#EBF3EC"/>
<path d="M0 44H51.2542L51.2285 66.2488H3.99016H0V44Z" fill="#EB6527"/>
<path d="M4.37298 70.6235L0 66.2412H4.37298V70.6235Z" fill="#BE4107"/>
<path d="M56.1997 22.5756L45.0273 14.0938H56.1997V22.5756Z" fill="#D6DBD5"/>
<path d="M11.4575 50.1C12.2175 50.1 12.8675 50.23 13.4075 50.49C13.9475 50.74 14.3625 51.105 14.6525 51.585C14.9525 52.055 15.1025 52.625 15.1025 53.295C15.1025 53.965 14.9525 54.54 14.6525 55.02C14.3625 55.49 13.9475 55.855 13.4075 56.115C12.8675 56.365 12.2175 56.49 11.4575 56.49H9.37246V60H7.30246V50.1H11.4575ZM11.1425 54.855C11.7625 54.855 12.2275 54.725 12.5375 54.465C12.8475 54.195 13.0025 53.805 13.0025 53.295C13.0025 52.775 12.8475 52.385 12.5375 52.125C12.2275 51.865 11.7625 51.735 11.1425 51.735H9.37246V54.855H11.1425ZM21.1847 50.1C21.9447 50.1 22.5947 50.23 23.1347 50.49C23.6747 50.74 24.0897 51.105 24.3797 51.585C24.6797 52.055 24.8297 52.625 24.8297 53.295C24.8297 53.965 24.6797 54.54 24.3797 55.02C24.0897 55.49 23.6747 55.855 23.1347 56.115C22.5947 56.365 21.9447 56.49 21.1847 56.49H19.0997V60H17.0297V50.1H21.1847ZM20.8697 54.855C21.4897 54.855 21.9547 54.725 22.2647 54.465C22.5747 54.195 22.7297 53.805 22.7297 53.295C22.7297 52.775 22.5747 52.385 22.2647 52.125C21.9547 51.865 21.4897 51.735 20.8697 51.735H19.0997V54.855H20.8697ZM34.4698 50.1V51.765H31.1548V60H29.0848V51.765H25.7548V50.1H34.4698ZM44.2613 60H41.8013L39.6413 56.49L37.5113 60H35.1413L38.5463 55.005L35.3813 50.1H37.8113L39.8063 53.43L41.8313 50.1H44.0813L40.9013 54.93L44.2613 60Z" fill="white"/>
</svg>
