<svg width="57" height="80" viewBox="0 0 57 80" fill="none" xmlns="http://www.w3.org/2000/svg">
<path d="M56.1723 76.9745V14.062L43.7586 0.0318867C32.7837 0.0106289 10.1514 7.79877e-06 7.4203 0C4.7965 -7.49232e-06 4.37331 1.65811 4.37331 3.76263C4.38271 27.1675 4.39588 74.5702 4.37331 76.9426C4.35073 79.315 5.81213 79.9718 7.02532 79.9718C21.6678 79.9931 51.4776 80.0228 53.5767 79.9718C55.6757 79.9208 56.1817 77.9523 56.1723 76.9745Z" fill="#E3E9E1"/>
<path d="M43.7588 14.0624V0.0322266L56.1725 14.0624H43.7588Z" fill="#EBF3EC"/>
<path d="M0 44H51.2542L51.2285 66.2488H3.99016H0V44Z" fill="#D56FA4"/>
<path d="M4.37298 70.6235L0 66.2412H4.37298V70.6235Z" fill="#A1577D"/>
<path d="M56.1997 22.5756L45.0273 14.0938H56.1997V22.5756Z" fill="#D6DBD5"/>
<path d="M10.5146 49.95C11.4146 49.95 12.2046 50.105 12.8846 50.415C13.5646 50.725 14.1446 51.185 14.6246 51.795L13.4696 53.13C13.0596 52.61 12.6096 52.23 12.1196 51.99C11.6396 51.74 11.0796 51.615 10.4396 51.615C10.0196 51.615 9.66963 51.67 9.38963 51.78C9.11963 51.89 8.91963 52.035 8.78963 52.215C8.66963 52.395 8.60963 52.595 8.60963 52.815C8.60963 53.085 8.71463 53.315 8.92463 53.505C9.13463 53.685 9.49463 53.835 10.0046 53.955L11.8496 54.375C12.8296 54.595 13.5296 54.925 13.9496 55.365C14.3796 55.795 14.5946 56.355 14.5946 57.045C14.5946 57.695 14.4246 58.255 14.0846 58.725C13.7446 59.185 13.2696 59.54 12.6596 59.79C12.0496 60.03 11.3496 60.15 10.5596 60.15C9.86963 60.15 9.23463 60.07 8.65463 59.91C8.08463 59.74 7.57463 59.51 7.12463 59.22C6.67463 58.93 6.29963 58.595 5.99963 58.215L7.16963 56.82C7.39963 57.14 7.68463 57.425 8.02463 57.675C8.36463 57.925 8.74963 58.125 9.17963 58.275C9.61963 58.415 10.0796 58.485 10.5596 58.485C10.9696 58.485 11.3146 58.44 11.5946 58.35C11.8846 58.25 12.0996 58.115 12.2396 57.945C12.3896 57.765 12.4646 57.55 12.4646 57.3C12.4646 57.04 12.3746 56.82 12.1946 56.64C12.0246 56.45 11.7046 56.305 11.2346 56.205L9.22463 55.755C8.64463 55.615 8.14463 55.435 7.72463 55.215C7.31463 54.985 6.99963 54.695 6.77963 54.345C6.56963 53.985 6.46463 53.56 6.46463 53.07C6.46463 52.48 6.62463 51.95 6.94463 51.48C7.26463 51.01 7.72463 50.64 8.32463 50.37C8.93463 50.09 9.66463 49.95 10.5146 49.95ZM25.0579 57.27C24.8679 57.91 24.5679 58.445 24.1579 58.875C23.7479 59.305 23.2629 59.625 22.7029 59.835C22.1429 60.045 21.5279 60.15 20.8579 60.15C19.8779 60.15 19.0279 59.945 18.3079 59.535C17.5979 59.125 17.0479 58.54 16.6579 57.78C16.2779 57.02 16.0879 56.11 16.0879 55.05C16.0879 53.99 16.2779 53.08 16.6579 52.32C17.0479 51.56 17.5979 50.975 18.3079 50.565C19.0279 50.155 19.8679 49.95 20.8279 49.95C21.5079 49.95 22.1229 50.045 22.6729 50.235C23.2229 50.415 23.6879 50.695 24.0679 51.075C24.4579 51.455 24.7429 51.935 24.9229 52.515L23.0479 53.31C22.8779 52.71 22.6179 52.285 22.2679 52.035C21.9179 51.775 21.4679 51.645 20.9179 51.645C20.3779 51.645 19.9029 51.775 19.4929 52.035C19.0929 52.295 18.7829 52.68 18.5629 53.19C18.3429 53.69 18.2329 54.31 18.2329 55.05C18.2329 55.78 18.3329 56.4 18.5329 56.91C18.7429 57.42 19.0479 57.805 19.4479 58.065C19.8479 58.325 20.3379 58.455 20.9179 58.455C21.4579 58.455 21.9229 58.31 22.3129 58.02C22.7129 57.73 22.9929 57.29 23.1529 56.7L25.0579 57.27ZM30.4672 49.95C31.3672 49.95 32.1572 50.105 32.8372 50.415C33.5172 50.725 34.0972 51.185 34.5772 51.795L33.4222 53.13C33.0122 52.61 32.5622 52.23 32.0722 51.99C31.5922 51.74 31.0322 51.615 30.3922 51.615C29.9722 51.615 29.6222 51.67 29.3422 51.78C29.0722 51.89 28.8722 52.035 28.7422 52.215C28.6222 52.395 28.5622 52.595 28.5622 52.815C28.5622 53.085 28.6672 53.315 28.8772 53.505C29.0872 53.685 29.4472 53.835 29.9572 53.955L31.8022 54.375C32.7822 54.595 33.4822 54.925 33.9022 55.365C34.3322 55.795 34.5472 56.355 34.5472 57.045C34.5472 57.695 34.3772 58.255 34.0372 58.725C33.6972 59.185 33.2222 59.54 32.6122 59.79C32.0022 60.03 31.3022 60.15 30.5122 60.15C29.8222 60.15 29.1872 60.07 28.6072 59.91C28.0372 59.74 27.5272 59.51 27.0772 59.22C26.6272 58.93 26.2522 58.595 25.9522 58.215L27.1222 56.82C27.3522 57.14 27.6372 57.425 27.9772 57.675C28.3172 57.925 28.7022 58.125 29.1322 58.275C29.5722 58.415 30.0322 58.485 30.5122 58.485C30.9222 58.485 31.2672 58.44 31.5472 58.35C31.8372 58.25 32.0522 58.115 32.1922 57.945C32.3422 57.765 32.4172 57.55 32.4172 57.3C32.4172 57.04 32.3272 56.82 32.1472 56.64C31.9772 56.45 31.6572 56.305 31.1872 56.205L29.1772 55.755C28.5972 55.615 28.0972 55.435 27.6772 55.215C27.2672 54.985 26.9522 54.695 26.7322 54.345C26.5222 53.985 26.4172 53.56 26.4172 53.07C26.4172 52.48 26.5772 51.95 26.8972 51.48C27.2172 51.01 27.6772 50.64 28.2772 50.37C28.8872 50.09 29.6172 49.95 30.4672 49.95ZM40.1505 49.95C41.0505 49.95 41.8405 50.105 42.5205 50.415C43.2005 50.725 43.7805 51.185 44.2605 51.795L43.1055 53.13C42.6955 52.61 42.2455 52.23 41.7555 51.99C41.2755 51.74 40.7155 51.615 40.0755 51.615C39.6555 51.615 39.3055 51.67 39.0255 51.78C38.7555 51.89 38.5555 52.035 38.4255 52.215C38.3055 52.395 38.2455 52.595 38.2455 52.815C38.2455 53.085 38.3505 53.315 38.5605 53.505C38.7705 53.685 39.1305 53.835 39.6405 53.955L41.4855 54.375C42.4655 54.595 43.1655 54.925 43.5855 55.365C44.0155 55.795 44.2305 56.355 44.2305 57.045C44.2305 57.695 44.0605 58.255 43.7205 58.725C43.3805 59.185 42.9055 59.54 42.2955 59.79C41.6855 60.03 40.9855 60.15 40.1955 60.15C39.5055 60.15 38.8705 60.07 38.2905 59.91C37.7205 59.74 37.2105 59.51 36.7605 59.22C36.3105 58.93 35.9355 58.595 35.6355 58.215L36.8055 56.82C37.0355 57.14 37.3205 57.425 37.6605 57.675C38.0005 57.925 38.3855 58.125 38.8155 58.275C39.2555 58.415 39.7155 58.485 40.1955 58.485C40.6055 58.485 40.9505 58.44 41.2305 58.35C41.5205 58.25 41.7355 58.115 41.8755 57.945C42.0255 57.765 42.1005 57.55 42.1005 57.3C42.1005 57.04 42.0105 56.82 41.8305 56.64C41.6605 56.45 41.3405 56.305 40.8705 56.205L38.8605 55.755C38.2805 55.615 37.7805 55.435 37.3605 55.215C36.9505 54.985 36.6355 54.695 36.4155 54.345C36.2055 53.985 36.1005 53.56 36.1005 53.07C36.1005 52.48 36.2605 51.95 36.5805 51.48C36.9005 51.01 37.3605 50.64 37.9605 50.37C38.5705 50.09 39.3005 49.95 40.1505 49.95Z" fill="white"/>
</svg>
