<svg width="57" height="80" viewBox="0 0 57 80" fill="none" xmlns="http://www.w3.org/2000/svg">
<path d="M56.1723 76.9745V14.062L43.7586 0.0318867C32.7837 0.0106289 10.1514 7.79877e-06 7.4203 0C4.7965 -7.49232e-06 4.37331 1.65811 4.37331 3.76263C4.38271 27.1675 4.39588 74.5702 4.37331 76.9426C4.35073 79.315 5.81213 79.9718 7.02532 79.9718C21.6678 79.9931 51.4776 80.0228 53.5767 79.9718C55.6757 79.9208 56.1817 77.9523 56.1723 76.9745Z" fill="#E3E9E1"/>
<path d="M43.7588 14.0624V0.0322266L56.1725 14.0624H43.7588Z" fill="#EBF3EC"/>
<path d="M0 44H51.2542L51.2285 66.2488H3.99016H0V44Z" fill="#44A2EE"/>
<path d="M4.37298 70.6235L0 66.2412H4.37298V70.6235Z" fill="#2772B0"/>
<path d="M56.1997 22.5756L45.0273 14.0938H56.1997V22.5756Z" fill="#D6DBD5"/>
<path d="M24.911 50.1V51.765H21.596V60H19.526V51.765H16.196V50.1H24.911ZM29.9692 49.95C30.8692 49.95 31.6592 50.105 32.3392 50.415C33.0192 50.725 33.5992 51.185 34.0792 51.795L32.9242 53.13C32.5142 52.61 32.0642 52.23 31.5742 51.99C31.0942 51.74 30.5342 51.615 29.8942 51.615C29.4742 51.615 29.1242 51.67 28.8442 51.78C28.5742 51.89 28.3742 52.035 28.2442 52.215C28.1242 52.395 28.0642 52.595 28.0642 52.815C28.0642 53.085 28.1692 53.315 28.3792 53.505C28.5892 53.685 28.9492 53.835 29.4592 53.955L31.3042 54.375C32.2842 54.595 32.9842 54.925 33.4042 55.365C33.8342 55.795 34.0492 56.355 34.0492 57.045C34.0492 57.695 33.8792 58.255 33.5392 58.725C33.1992 59.185 32.7242 59.54 32.1142 59.79C31.5042 60.03 30.8042 60.15 30.0142 60.15C29.3242 60.15 28.6892 60.07 28.1092 59.91C27.5392 59.74 27.0292 59.51 26.5792 59.22C26.1292 58.93 25.7542 58.595 25.4542 58.215L26.6242 56.82C26.8542 57.14 27.1392 57.425 27.4792 57.675C27.8192 57.925 28.2042 58.125 28.6342 58.275C29.0742 58.415 29.5342 58.485 30.0142 58.485C30.4242 58.485 30.7692 58.44 31.0492 58.35C31.3392 58.25 31.5542 58.115 31.6942 57.945C31.8442 57.765 31.9192 57.55 31.9192 57.3C31.9192 57.04 31.8292 56.82 31.6492 56.64C31.4792 56.45 31.1592 56.305 30.6892 56.205L28.6792 55.755C28.0992 55.615 27.5992 55.435 27.1792 55.215C26.7692 54.985 26.4542 54.695 26.2342 54.345C26.0242 53.985 25.9192 53.56 25.9192 53.07C25.9192 52.48 26.0792 51.95 26.3992 51.48C26.7192 51.01 27.1792 50.64 27.7792 50.37C28.3892 50.09 29.1192 49.95 29.9692 49.95Z" fill="white"/>
</svg>
