<svg width="57" height="80" viewBox="0 0 57 80" fill="none" xmlns="http://www.w3.org/2000/svg">
<path d="M56.1723 76.9745V14.062L43.7586 0.0318867C32.7837 0.0106289 10.1514 7.79877e-06 7.4203 0C4.7965 -7.49232e-06 4.37331 1.65811 4.37331 3.76263C4.38271 27.1675 4.39588 74.5702 4.37331 76.9426C4.35073 79.315 5.81213 79.9718 7.02532 79.9718C21.6678 79.9931 51.4776 80.0228 53.5767 79.9718C55.6757 79.9208 56.1817 77.9523 56.1723 76.9745Z" fill="#E3E9E1"/>
<path d="M43.7588 14.0624V0.0322266L56.1725 14.0624H43.7588Z" fill="#EBF3EC"/>
<path d="M0 44H51.2542L51.2285 66.2488H3.99016H0V44Z" fill="#44A2EE"/>
<path d="M51.2285 66.2488L51.2542 44H38.4407H32.0339H30.5L26.5 66.2488H51.2285Z" fill="#9A228A"/>
<path d="M4.37298 70.6235L0 66.2412H4.37298V70.6235Z" fill="#2772B0"/>
<path d="M56.1997 22.5756L45.0273 14.0938H56.1997V22.5756Z" fill="#D6DBD5"/>
<path d="M16.8424 50.1V51.765H13.5274V60H11.4574V51.765H8.12742V50.1H16.8424ZM21.9006 49.95C22.8006 49.95 23.5906 50.105 24.2706 50.415C24.9506 50.725 25.5306 51.185 26.0106 51.795L24.8556 53.13C24.4456 52.61 23.9956 52.23 23.5056 51.99C23.0256 51.74 22.4656 51.615 21.8256 51.615C21.4056 51.615 21.0556 51.67 20.7756 51.78C20.5056 51.89 20.3056 52.035 20.1756 52.215C20.0556 52.395 19.9956 52.595 19.9956 52.815C19.9956 53.085 20.1006 53.315 20.3106 53.505C20.5206 53.685 20.8806 53.835 21.3906 53.955L23.2356 54.375C24.2156 54.595 24.9156 54.925 25.3356 55.365C25.7656 55.795 25.9806 56.355 25.9806 57.045C25.9806 57.695 25.8106 58.255 25.4706 58.725C25.1306 59.185 24.6556 59.54 24.0456 59.79C23.4356 60.03 22.7356 60.15 21.9456 60.15C21.2556 60.15 20.6206 60.07 20.0406 59.91C19.4706 59.74 18.9606 59.51 18.5106 59.22C18.0606 58.93 17.6856 58.595 17.3856 58.215L18.5556 56.82C18.7856 57.14 19.0706 57.425 19.4106 57.675C19.7506 57.925 20.1356 58.125 20.5656 58.275C21.0056 58.415 21.4656 58.485 21.9456 58.485C22.3556 58.485 22.7006 58.44 22.9806 58.35C23.2706 58.25 23.4856 58.115 23.6256 57.945C23.7756 57.765 23.8506 57.55 23.8506 57.3C23.8506 57.04 23.7606 56.82 23.5806 56.64C23.4106 56.45 23.0906 56.305 22.6206 56.205L20.6106 55.755C20.0306 55.615 19.5306 55.435 19.1106 55.215C18.7006 54.985 18.3856 54.695 18.1656 54.345C17.9556 53.985 17.8506 53.56 17.8506 53.07C17.8506 52.48 18.0106 51.95 18.3306 51.48C18.6506 51.01 19.1106 50.64 19.7106 50.37C20.3206 50.09 21.0506 49.95 21.9006 49.95ZM40.5513 60H38.0913L35.9313 56.49L33.8013 60H31.4313L34.8363 55.005L31.6713 50.1H34.1013L36.0963 53.43L38.1213 50.1H40.3713L37.1913 54.93L40.5513 60Z" fill="white"/>
</svg>
