<svg width="57" height="80" viewBox="0 0 57 80" fill="none" xmlns="http://www.w3.org/2000/svg">
<path d="M56.1723 76.9745V14.062L43.7586 0.0318867C32.7837 0.0106289 10.1514 7.79877e-06 7.4203 0C4.7965 -7.49232e-06 4.37331 1.65811 4.37331 3.76263C4.38271 27.1675 4.39588 74.5702 4.37331 76.9426C4.35073 79.315 5.81213 79.9718 7.02532 79.9718C21.6678 79.9931 51.4776 80.0228 53.5767 79.9718C55.6757 79.9208 56.1817 77.9523 56.1723 76.9745Z" fill="#E3E9E1"/>
<path d="M43.7588 14.0624V0.0322266L56.1725 14.0624H43.7588Z" fill="#EBF3EC"/>
<path d="M0 44H51.2542L51.2285 66.2488H3.99016H0V44Z" fill="#2DB43B"/>
<path d="M4.37298 70.6235L0 66.2412H4.37298V70.6235Z" fill="#299734"/>
<path d="M56.1997 22.5756L45.0273 14.0938H56.1997V22.5756Z" fill="#D6DBD5"/>
<path d="M20.4558 60H17.9958L15.8358 56.49L13.7058 60H11.3358L14.7408 55.005L11.5758 50.1H14.0058L16.0008 53.43L18.0258 50.1H20.2758L17.0958 54.93L20.4558 60ZM24.0805 58.335H29.3005V60H22.0105V50.1H24.0805V58.335ZM34.6643 49.95C35.5643 49.95 36.3543 50.105 37.0343 50.415C37.7143 50.725 38.2943 51.185 38.7743 51.795L37.6193 53.13C37.2093 52.61 36.7593 52.23 36.2693 51.99C35.7893 51.74 35.2293 51.615 34.5893 51.615C34.1693 51.615 33.8193 51.67 33.5393 51.78C33.2693 51.89 33.0693 52.035 32.9393 52.215C32.8193 52.395 32.7593 52.595 32.7593 52.815C32.7593 53.085 32.8643 53.315 33.0743 53.505C33.2843 53.685 33.6443 53.835 34.1543 53.955L35.9993 54.375C36.9793 54.595 37.6793 54.925 38.0993 55.365C38.5293 55.795 38.7443 56.355 38.7443 57.045C38.7443 57.695 38.5743 58.255 38.2343 58.725C37.8943 59.185 37.4193 59.54 36.8093 59.79C36.1993 60.03 35.4993 60.15 34.7093 60.15C34.0193 60.15 33.3843 60.07 32.8043 59.91C32.2343 59.74 31.7243 59.51 31.2743 59.22C30.8243 58.93 30.4493 58.595 30.1493 58.215L31.3193 56.82C31.5493 57.14 31.8343 57.425 32.1743 57.675C32.5143 57.925 32.8993 58.125 33.3293 58.275C33.7693 58.415 34.2293 58.485 34.7093 58.485C35.1193 58.485 35.4643 58.44 35.7443 58.35C36.0343 58.25 36.2493 58.115 36.3893 57.945C36.5393 57.765 36.6143 57.55 36.6143 57.3C36.6143 57.04 36.5243 56.82 36.3443 56.64C36.1743 56.45 35.8543 56.305 35.3843 56.205L33.3743 55.755C32.7943 55.615 32.2943 55.435 31.8743 55.215C31.4643 54.985 31.1493 54.695 30.9293 54.345C30.7193 53.985 30.6143 53.56 30.6143 53.07C30.6143 52.48 30.7743 51.95 31.0943 51.48C31.4143 51.01 31.8743 50.64 32.4743 50.37C33.0843 50.09 33.8143 49.95 34.6643 49.95Z" fill="white"/>
</svg>
