<?xml version="1.0" encoding="UTF-8"?> <svg xmlns="http://www.w3.org/2000/svg" width="209" height="151" viewBox="0 0 209 151" fill="none"> <path d="M151.8 11.895C141.986 11.895 133.941 19.9312 133.941 29.7354V97.4804C133.941 107.285 141.986 115.321 151.8 115.321C161.615 115.321 169.659 107.285 169.659 97.4804V29.7354C169.659 19.9312 161.615 11.895 151.8 11.895Z" fill="url(#paint0_linear)"></path> <path d="M104.177 0C94.3629 0 86.3184 8.03619 86.3184 17.8403V133.16C86.3184 142.964 94.3629 151 104.177 151C113.992 151 122.036 142.964 122.036 133.16V17.8403C122.036 8.03619 113.992 0 104.177 0Z" fill="url(#paint1_linear)"></path> <path d="M194.92 62.1187C187.519 62.1187 181.566 68.1458 181.566 75.4587C181.566 82.7717 187.599 88.7988 194.92 88.7988C202.321 88.7988 208.274 82.7717 208.274 75.4587C208.274 68.1458 202.321 62.1187 194.92 62.1187Z" fill="url(#paint2_linear)"></path> <path d="M13.354 62.1187C6.03341 62.1187 0 68.0654 0 75.4587C0 82.852 6.03341 88.7988 13.354 88.7988C20.7549 88.7988 26.7079 82.7717 26.7079 75.4587C26.7079 68.1458 20.7549 62.1187 13.354 62.1187Z" fill="url(#paint3_linear)"></path> <path d="M56.5532 35.6816C46.7389 35.6816 38.6943 43.7178 38.6943 53.522V121.267C38.6943 131.071 46.7389 139.107 56.5532 139.107C66.3676 139.107 74.4121 131.071 74.4121 121.267V53.522C74.4121 43.7178 66.3676 35.6816 56.5532 35.6816Z" fill="url(#paint4_linear)"></path> <defs> <linearGradient id="paint0_linear" x1="64.5647" y1="149.716" x2="180.694" y2="34.7948" gradientUnits="userSpaceOnUse"> <stop stop-color="#235F83"></stop> <stop offset="1" stop-color="#71BFBA"></stop> </linearGradient> <linearGradient id="paint1_linear" x1="46.9823" y1="131.947" x2="163.112" y2="17.0256" gradientUnits="userSpaceOnUse"> <stop stop-color="#235F83"></stop> <stop offset="1" stop-color="#71BFBA"></stop> </linearGradient> <linearGradient id="paint2_linear" x1="91.8458" y1="177.281" x2="207.975" y2="62.3592" gradientUnits="userSpaceOnUse"> <stop stop-color="#235F83"></stop> <stop offset="1" stop-color="#71BFBA"></stop> </linearGradient> <linearGradient id="paint3_linear" x1="2.11869" y1="86.6112" x2="118.248" y2="-28.3104" gradientUnits="userSpaceOnUse"> <stop stop-color="#235F83"></stop> <stop offset="1" stop-color="#71BFBA"></stop> </linearGradient> <linearGradient id="paint4_linear" x1="29.3989" y1="114.18" x2="145.528" y2="-0.74145" gradientUnits="userSpaceOnUse"> <stop stop-color="#235F83"></stop> <stop offset="1" stop-color="#71BFBA"></stop> </linearGradient> </defs> </svg> 