<svg xmlns="http://www.w3.org/2000/svg" viewBox="0 0 138 138"><title>Presto Music</title>
<style>
@media (prefers-color-scheme: dark) {
	.a { fill: #1e2850 }
	.b { fill: #fff }
}
</style>
<rect width="138" height="138" fill="none"/>
<circle class="a" cx="69" cy="69" r="55" fill="#fff"/>
<path class="b" d="M69,6.6a62.4,62.4,0,1,0,62.4,62.4a62.4,62.4,0,0,0,-62.4,-62.4zm50.8,64.2h-0.1l-47.5,27.5a2.2,2.2,0,0,1,-3.2,-1.9v-17l-32.9,18.9a2.2,2.2,0,0,1,-3.3,-1.9v-54.9a2.2,2.2,0,0,1,3.3,-1.9l32.8,19v-17.1a2.2,2.2,0,0,1,3.3,-1.9l47.6,27.5a2,2,0,0,1,0.9,0.8a2.1,2.1,0,0,1,-0.9,2.9z" fill="#1e2850"/>
</svg>
